<svg width="88" height="89" viewBox="0 0 88 89" fill="none" xmlns="http://www.w3.org/2000/svg">
<path d="M21.9364 22.7824C34.0516 10.6672 53.6941 10.6672 65.8093 22.7824C77.9245 34.8975 77.9245 54.5401 65.8093 66.6552C53.6941 78.7704 34.0516 78.7704 21.9364 66.6552C9.82128 54.5401 9.82128 34.8975 21.9364 22.7824Z" fill="#E87536"/>
<path d="M43.96 53.3395C42.8289 53.3395 41.8216 53.1451 40.938 52.7563C40.0594 52.3625 39.3651 51.8222 38.8551 51.1355C38.3502 50.4437 38.0901 49.6459 38.075 48.7421H41.3772C41.3974 49.1208 41.5211 49.4541 41.7484 49.7419C41.9806 50.0246 42.2886 50.2443 42.6724 50.4008C43.0561 50.5573 43.4879 50.6356 43.9675 50.6356C44.4674 50.6356 44.9092 50.5472 45.293 50.3705C45.6767 50.1938 45.9772 49.9489 46.1943 49.6358C46.4114 49.3228 46.52 48.9617 46.52 48.5527C46.52 48.1387 46.4039 47.7726 46.1716 47.4545C45.9444 47.1314 45.6162 46.8789 45.187 46.6971C44.7628 46.5153 44.2579 46.4245 43.6722 46.4245H42.2255V44.0159H43.6722C44.167 44.0159 44.6038 43.9301 44.9825 43.7584C45.3662 43.5867 45.6641 43.3494 45.8762 43.0465C46.0883 42.7384 46.1943 42.3799 46.1943 41.9709C46.1943 41.5821 46.1009 41.2413 45.9141 40.9485C45.7323 40.6505 45.4748 40.4183 45.1415 40.2516C44.8133 40.085 44.4296 40.0017 43.9903 40.0017C43.5459 40.0017 43.1395 40.0825 42.7709 40.2441C42.4023 40.4006 42.1069 40.6253 41.8847 40.9182C41.6625 41.211 41.5439 41.5544 41.5287 41.9482H38.3855C38.4007 41.0545 38.6557 40.2668 39.1505 39.5851C39.6453 38.9035 40.3118 38.3708 41.15 37.987C41.9933 37.5982 42.9451 37.4038 44.0054 37.4038C45.0759 37.4038 46.0125 37.5982 46.8154 37.987C47.6182 38.3758 48.2418 38.901 48.6861 39.5624C49.1355 40.2188 49.3577 40.956 49.3527 41.774C49.3577 42.6425 49.0876 43.3671 48.5422 43.9478C48.002 44.5284 47.2976 44.897 46.4291 45.0536V45.1747C47.5702 45.3212 48.4387 45.7175 49.0346 46.3639C49.6354 47.0051 49.9333 47.808 49.9283 48.7724C49.9333 49.656 49.6783 50.4412 49.1633 51.1279C48.6533 51.8146 47.9489 52.3549 47.0502 52.7487C46.1514 53.1426 45.1213 53.3395 43.96 53.3395Z" fill="white"/>
</svg>
