<svg width="88" height="89" viewBox="0 0 88 89" fill="none" xmlns="http://www.w3.org/2000/svg">
<path d="M21.9364 22.3593C34.0516 10.2441 53.6941 10.2441 65.8093 22.3593C77.9245 34.4744 77.9245 54.117 65.8093 66.2322C53.6941 78.3473 34.0516 78.3473 21.9364 66.2322C9.82127 54.117 9.82127 34.4744 21.9364 22.3593Z" fill="#E87536"/>
<path d="M38.2265 52.7043V50.3413L43.7479 45.2288C44.2175 44.7744 44.6113 44.3654 44.9294 44.0018C45.2526 43.6383 45.4975 43.2823 45.6641 42.9339C45.8308 42.5804 45.9141 42.1992 45.9141 41.7902C45.9141 41.3358 45.8106 40.9445 45.6035 40.6162C45.3965 40.283 45.1137 40.028 44.7552 39.8513C44.3967 39.6695 43.9903 39.5786 43.5358 39.5786C43.0612 39.5786 42.6471 39.6745 42.2937 39.8664C41.9402 40.0583 41.6676 40.3335 41.4757 40.692C41.2838 41.0505 41.1879 41.4772 41.1879 41.972H38.075C38.075 40.9571 38.3047 40.076 38.7642 39.3287C39.2237 38.5814 39.8675 38.0032 40.6956 37.5942C41.5237 37.1852 42.478 36.9807 43.5586 36.9807C44.6694 36.9807 45.6364 37.1777 46.4594 37.5715C47.2875 37.9603 47.9313 38.5006 48.3908 39.1923C48.8503 39.8841 49.08 40.6768 49.08 41.5706C49.08 42.1563 48.9639 42.7344 48.7316 43.305C48.5044 43.8756 48.0979 44.5093 47.5122 45.2061C46.9265 45.8978 46.1009 46.7285 45.0355 47.6979L42.7709 49.9171V50.0232H49.2845V52.7043H38.2265Z" fill="white"/>
</svg>
